<svg xmlns="http://www.w3.org/2000/svg" viewBox="0 0 150.21 160.66"><defs><style>.cls-1{fill:#0b101d;}</style></defs><g id="Laag_2" data-name="Laag 2"><g id="Laag_1-2" data-name="Laag 1"><circle class="cls-1" cx="30.82" cy="26.62" r="26.62"/><path class="cls-1" d="M80.24,113.51c-1,1.27-2.77,1.41-4.06,1.52-8.87.72-16.36-13-18-16.07-7.12-13-6.7-24.58-7.54-24.52-1.09.09-3.15,20,.54,46.88,2.79,20.32,7.61,35.45,2.42,38.26-2.14,1.16-5-.32-5.92-.8-3.32-1.73-5.39-5.22-10.24-30.45-.73-3.79-1.66-7.53-2.43-11.32s-1.06-5.52-1.37-5.5c-.56,0-.6,5.95-.63,11-.14,27.05,0,34.31-4.46,37.11-.23.14-2.78,1.7-5.12.81-3.42-1.29-4.24-7-4.58-10.24-1.89-17.81-.21-61.44-2.64-72.77-.17-.78-.68-3.14-1.15-3.11-.7,0-.57,5.43-1.06,10.41C11.59,108.76,9,111.49,7,112.16a5.47,5.47,0,0,1-4.58-.8C-2.36,108.1.91,99,4.19,76.25,6.48,60.41,6,56.87,9.92,53.43c4.59-4.07,10.69-4,20.9-3.8,9.16.15,16.61.28,22.24,5.08,4.75,4,4.53,8.26,7.61,17.44C68.85,96.5,84.38,108.47,80.24,113.51Z"/><circle class="cls-1" cx="119.39" cy="26.62" r="26.62"/><path class="cls-1" d="M70,113.51c1,1.27,2.76,1.41,4.06,1.52,8.87.72,16.35-13,18-16.07,7.12-13,6.71-24.58,7.55-24.52,1.09.09,3.15,20-.54,46.88-2.79,20.32-7.61,35.45-2.43,38.26,2.14,1.16,5-.32,5.93-.8,3.32-1.73,5.39-5.22,10.24-30.45.73-3.79,1.66-7.53,2.42-11.32s1.07-5.52,1.38-5.5c.55,0,.6,5.95.62,11,.15,27.05,0,34.31,4.47,37.11.23.14,2.78,1.7,5.12.81,3.42-1.29,4.23-7,4.58-10.24,1.89-17.81.2-61.44,2.64-72.77.17-.78.67-3.14,1.15-3.11.7,0,.57,5.43,1.06,10.41,2.37,24.08,4.94,26.81,7,27.48a5.46,5.46,0,0,0,4.58-.8C152.57,108.1,149.3,99,146,76.25c-2.29-15.84-1.85-19.38-5.72-22.82-4.59-4.07-10.69-4-20.9-3.8-9.16.15-16.61.28-22.25,5.08-4.75,4-4.53,8.26-7.61,17.44C81.36,96.5,65.83,108.47,70,113.51Z"/></g></g></svg>